<svg width="48" height="52" viewBox="0 0 48 52" fill="none" xmlns="http://www.w3.org/2000/svg">
<circle cx="24" cy="24" r="24" fill="#073763"/>
<g opacity="0.88">
<mask id="mask0_357_9587" style="mask-type:alpha" maskUnits="userSpaceOnUse" x="2" y="8" width="44" height="44">
<path d="M24.0007 29.9998C26.4318 29.9998 28.7634 29.0341 30.4825 27.315C32.2015 25.5959 33.1673 23.2643 33.1673 20.8332C33.1673 18.402 32.2015 16.0704 30.4825 14.3514C28.7634 12.6323 26.4318 11.6665 24.0007 11.6665C21.5695 11.6665 19.2379 12.6323 17.5188 14.3514C15.7998 16.0704 14.834 18.402 14.834 20.8332C14.834 23.2643 15.7998 25.5959 17.5188 27.315C19.2379 29.0341 21.5695 29.9998 24.0007 29.9998Z" fill="#C8CFD2"/>
<path d="M24.0009 34.583C14.8159 34.583 7.33594 40.743 7.33594 48.333C7.33594 48.8463 7.73927 49.2497 8.2526 49.2497H39.7493C40.2626 49.2497 40.6659 48.8463 40.6659 48.333C40.6659 40.743 33.1859 34.583 24.0009 34.583Z" fill="#C8CFD2"/>
</mask>
<g mask="url(#mask0_357_9587)">
<circle cx="24" cy="24" r="24" fill="white"/>
</g>
</g>
</svg>
