<svg width="24" height="24" viewBox="0 0 24 24" fill="none" xmlns="http://www.w3.org/2000/svg">
<path fill-rule="evenodd" clip-rule="evenodd" d="M12 6.70459C12.4142 6.70459 12.75 7.04038 12.75 7.45459V17.4546C12.75 17.8688 12.4142 18.2046 12 18.2046C11.5858 18.2046 11.25 17.8688 11.25 17.4546V7.45459C11.25 7.04038 11.5858 6.70459 12 6.70459Z" fill="#073763"/>
<path fill-rule="evenodd" clip-rule="evenodd" d="M11.4693 6.92426C11.7622 6.63137 12.2371 6.63137 12.53 6.92426L16.1663 10.5606C16.4592 10.8535 16.4592 11.3284 16.1663 11.6213C15.8734 11.9142 15.3986 11.9142 15.1057 11.6213L11.9996 8.51525L8.89361 11.6213C8.60072 11.9142 8.12584 11.9142 7.83295 11.6213C7.54006 11.3284 7.54006 10.8535 7.83295 10.5606L11.4693 6.92426Z" fill="#073763"/>
<path fill-rule="evenodd" clip-rule="evenodd" d="M12 2.75C6.89137 2.75 2.75 6.89137 2.75 12C2.75 17.1086 6.89137 21.25 12 21.25C17.1086 21.25 21.25 17.1086 21.25 12C21.25 6.89137 17.1086 2.75 12 2.75ZM1.25 12C1.25 6.06294 6.06294 1.25 12 1.25C17.9371 1.25 22.75 6.06294 22.75 12C22.75 17.9371 17.9371 22.75 12 22.75C6.06294 22.75 1.25 17.9371 1.25 12Z" fill="#073763"/>
</svg>
