<svg width="20" height="20" viewBox="0 0 20 20" fill="none" xmlns="http://www.w3.org/2000/svg">
<path fill-rule="evenodd" clip-rule="evenodd" d="M19 9.25C19.4142 9.25 19.75 9.58579 19.75 10V15C19.75 17.6234 17.6234 19.75 15 19.75H5C2.37665 19.75 0.25 17.6234 0.25 15V10.004C0.25 9.58979 0.585786 9.254 1 9.254C1.41421 9.254 1.75 9.58979 1.75 10.004V15C1.75 16.7949 3.20507 18.25 5 18.25H15C16.7949 18.25 18.25 16.7949 18.25 15V10C18.25 9.58579 18.5858 9.25 19 9.25Z" fill="#FF9767"/>
<path fill-rule="evenodd" clip-rule="evenodd" d="M4.96967 8.96967C5.26256 8.67678 5.73744 8.67678 6.03033 8.96967L10 12.9393L13.9697 8.96967C14.2626 8.67678 14.7374 8.67678 15.0303 8.96967C15.3232 9.26256 15.3232 9.73744 15.0303 10.0303L10.5303 14.5303C10.2374 14.8232 9.76256 14.8232 9.46967 14.5303L4.96967 10.0303C4.67678 9.73744 4.67678 9.26256 4.96967 8.96967Z" fill="#FF9767"/>
<path fill-rule="evenodd" clip-rule="evenodd" d="M9.99609 0.25C10.4103 0.25 10.7461 0.585786 10.7461 1V14C10.7461 14.4142 10.4103 14.75 9.99609 14.75C9.58188 14.75 9.24609 14.4142 9.24609 14V1C9.24609 0.585786 9.58188 0.25 9.99609 0.25Z" fill="#FF9767"/>
</svg>
