<svg width="21" height="20" viewBox="0 0 21 20" fill="none" xmlns="http://www.w3.org/2000/svg">
<path d="M20.5 9.99885C20.4998 8.08785 19.952 6.21692 18.9215 4.60757C17.891 2.99822 16.421 1.71784 14.6854 0.918015C12.9498 0.118188 11.0214 -0.167593 9.12847 0.0945078C7.23552 0.356608 5.45732 1.15561 4.00437 2.39693C2.55142 3.63824 1.48457 5.26989 0.930132 7.09869C0.37569 8.92749 0.356873 10.8769 0.875907 12.716C1.39494 14.5552 2.43009 16.2071 3.85881 17.4763C5.28752 18.7454 7.04997 19.5786 8.9375 19.8772V12.8897H6.39833V9.99885H8.9375V7.79552C8.9375 5.28968 10.4308 3.90468 12.7142 3.90468C13.4643 3.91544 14.2126 3.98061 14.9533 4.09968V6.56135H13.6917C13.3119 6.51093 12.9276 6.61341 12.6233 6.84625C12.3191 7.0791 12.1197 7.42324 12.0692 7.80301C12.0549 7.90937 12.0526 8.01699 12.0625 8.12385V9.99885H14.8333L14.39 12.8897H12.0567V19.8772C14.41 19.5063 16.5537 18.3074 18.1016 16.4964C19.6495 14.6854 20.5001 12.3813 20.5 9.99885Z" fill="white"/>
</svg>
