<svg width="20" height="20" viewBox="0 0 20 20" fill="none" xmlns="http://www.w3.org/2000/svg">
<g opacity="0.8">
<path d="M10.0004 11.8083C8.22539 11.8083 6.77539 10.3667 6.77539 8.58334C6.77539 6.8 8.22539 5.36667 10.0004 5.36667C11.7754 5.36667 13.2254 6.80834 13.2254 8.59167C13.2254 10.375 11.7754 11.8083 10.0004 11.8083ZM10.0004 6.61667C8.91706 6.61667 8.02539 7.5 8.02539 8.59167C8.02539 9.68334 8.90872 10.5667 10.0004 10.5667C11.0921 10.5667 11.9754 9.68334 11.9754 8.59167C11.9754 7.5 11.0837 6.61667 10.0004 6.61667Z" fill="white"/>
<path d="M10.0004 18.9667C8.76706 18.9667 7.52539 18.5 6.55872 17.575C4.10039 15.2083 1.38372 11.4333 2.40872 6.94166C3.33372 2.86666 6.89206 1.04166 10.0004 1.04166C10.0004 1.04166 10.0004 1.04166 10.0087 1.04166C13.1171 1.04166 16.6754 2.86666 17.6004 6.94999C18.6171 11.4417 15.9004 15.2083 13.4421 17.575C12.4754 18.5 11.2337 18.9667 10.0004 18.9667ZM10.0004 2.29166C7.57539 2.29166 4.45872 3.58332 3.63372 7.21666C2.73372 11.1417 5.20039 14.525 7.43372 16.6667C8.87539 18.0583 11.1337 18.0583 12.5754 16.6667C14.8004 14.525 17.2671 11.1417 16.3837 7.21666C15.5504 3.58332 12.4254 2.29166 10.0004 2.29166Z" fill="white"/>
</g>
</svg>
