<svg width="20" height="20" viewBox="0 0 20 20" fill="none" xmlns="http://www.w3.org/2000/svg">
<g opacity="0.8">
<path d="M11.1668 14.5167H9.07513C7.70846 14.5167 6.60013 13.3667 6.60013 11.95C6.60013 11.6083 6.88346 11.325 7.22513 11.325C7.5668 11.325 7.85013 11.6083 7.85013 11.95C7.85013 12.675 8.40013 13.2667 9.07513 13.2667H11.1668C11.7085 13.2667 12.1585 12.7833 12.1585 12.2C12.1585 11.475 11.9001 11.3333 11.4751 11.1833L8.1168 10C7.4668 9.775 6.5918 9.29167 6.5918 7.8C6.5918 6.51667 7.60013 5.48334 8.83346 5.48334H10.9251C12.2918 5.48334 13.4001 6.63334 13.4001 8.05C13.4001 8.39167 13.1168 8.675 12.7751 8.675C12.4335 8.675 12.1501 8.39167 12.1501 8.05C12.1501 7.325 11.6001 6.73334 10.9251 6.73334H8.83346C8.2918 6.73334 7.8418 7.21667 7.8418 7.8C7.8418 8.525 8.10013 8.66667 8.52513 8.81667L11.8835 10C12.5335 10.225 13.4085 10.7083 13.4085 12.2C13.4001 13.475 12.4001 14.5167 11.1668 14.5167Z" fill="white"/>
<path d="M10 15.625C9.65833 15.625 9.375 15.3417 9.375 15V5C9.375 4.65833 9.65833 4.375 10 4.375C10.3417 4.375 10.625 4.65833 10.625 5V15C10.625 15.3417 10.3417 15.625 10 15.625Z" fill="white"/>
<path d="M10.0003 18.9583C5.05866 18.9583 1.04199 14.9417 1.04199 9.99999C1.04199 5.05832 5.05866 1.04166 10.0003 1.04166C14.942 1.04166 18.9587 5.05832 18.9587 9.99999C18.9587 14.9417 14.942 18.9583 10.0003 18.9583ZM10.0003 2.29166C5.75033 2.29166 2.29199 5.74999 2.29199 9.99999C2.29199 14.25 5.75033 17.7083 10.0003 17.7083C14.2503 17.7083 17.7087 14.25 17.7087 9.99999C17.7087 5.74999 14.2503 2.29166 10.0003 2.29166Z" fill="white"/>
</g>
</svg>
