<svg width="49" height="54" viewBox="0 0 49 54" fill="none" xmlns="http://www.w3.org/2000/svg">
<path d="M44.5271 10.5997L28.6871 1.45301C26.1004 -0.0403255 22.9004 -0.0403255 20.2871 1.45301L4.47378 10.5997C1.88711 12.093 0.287109 14.8663 0.287109 17.8797V36.1197C0.287109 39.1063 1.88711 41.8797 4.47378 43.3997L20.3138 52.5463C22.9004 54.0397 26.1004 54.0397 28.7138 52.5463L44.5538 43.3997C47.1404 41.9063 48.7404 39.133 48.7404 36.1197V17.8797C48.7138 14.8663 47.1138 12.1197 44.5271 10.5997ZM24.5004 14.573C27.9404 14.573 30.7138 17.3463 30.7138 20.7863C30.7138 24.2263 27.9404 26.9997 24.5004 26.9997C21.0604 26.9997 18.2871 24.2263 18.2871 20.7863C18.2871 17.373 21.0604 14.573 24.5004 14.573ZM31.6471 39.4263H17.3538C15.1938 39.4263 13.9404 37.0263 15.1404 35.2397C16.9538 32.5463 20.4738 30.733 24.5004 30.733C28.5271 30.733 32.0471 32.5463 33.8604 35.2397C35.0604 36.9997 33.7804 39.4263 31.6471 39.4263Z" fill="url(#paint0_linear_358_2225)"/>
<defs>
<linearGradient id="paint0_linear_358_2225" x1="48.7404" y1="0.333008" x2="-4.34827" y2="48.5641" gradientUnits="userSpaceOnUse">
<stop stop-color="#FF9767"/>
<stop offset="1" stop-color="#FFE180"/>
</linearGradient>
</defs>
</svg>
