<svg width="24" height="24" viewBox="0 0 24 24" fill="none" xmlns="http://www.w3.org/2000/svg">
<path fill-rule="evenodd" clip-rule="evenodd" d="M16.2705 16.2698C16.5633 15.9769 17.0382 15.9769 17.3311 16.2698L20.5312 19.4699C20.8241 19.7628 20.8241 20.2376 20.5312 20.5305C20.2383 20.8234 19.7634 20.8234 19.4705 20.5305L16.2705 17.3304C15.9776 17.0375 15.9776 16.5627 16.2705 16.2698Z" fill="#073763"/>
<path fill-rule="evenodd" clip-rule="evenodd" d="M10.4002 4.75C7.27966 4.75 4.75 7.27966 4.75 10.4002C4.75 13.5207 7.27966 16.0503 10.4002 16.0503C13.5207 16.0503 16.0503 13.5207 16.0503 10.4002C16.0503 7.27966 13.5207 4.75 10.4002 4.75ZM3.25 10.4002C3.25 6.45123 6.45123 3.25 10.4002 3.25C14.3491 3.25 17.5503 6.45123 17.5503 10.4002C17.5503 14.3491 14.3491 17.5503 10.4002 17.5503C6.45123 17.5503 3.25 14.3491 3.25 10.4002Z" fill="#073763"/>
<path fill-rule="evenodd" clip-rule="evenodd" d="M10.3993 7.94989C9.7495 7.94989 9.12631 8.20802 8.66683 8.6675C8.20735 9.12698 7.94922 9.75017 7.94922 10.4C7.94922 10.8142 7.61343 11.15 7.19922 11.15C6.78501 11.15 6.44922 10.8142 6.44922 10.4C6.44922 9.35234 6.86539 8.34762 7.60617 7.60684C8.34695 6.86606 9.35167 6.44989 10.3993 6.44989C10.8135 6.44989 11.1493 6.78568 11.1493 7.19989C11.1493 7.6141 10.8135 7.94989 10.3993 7.94989Z" fill="#073763"/>
</svg>
